<svg xmlns="http://www.w3.org/2000/svg" width="74.023" height="129.785" viewBox="0 0 74.023 129.785">
  <path id="Path_1" data-name="Path 1" d="M73.828-8.4v-34.18H24.414v-79a8.073,8.073,0,0,1,2.49-5.908,8.073,8.073,0,0,1,5.908-2.49,7.805,7.805,0,0,1,5.762,2.49,8.153,8.153,0,0,1,2.441,5.908v62.4H73.828v-48.047a8.238,8.238,0,0,1,2.393-5.908,7.757,7.757,0,0,1,5.811-2.49,7.757,7.757,0,0,1,5.811,2.49,8.238,8.238,0,0,1,2.393,5.908V-59.18a7.911,7.911,0,0,1,5.811,2.393,7.911,7.911,0,0,1,2.393,5.811,7.911,7.911,0,0,1-2.393,5.811,7.911,7.911,0,0,1-5.811,2.393V-8.4a7.832,7.832,0,0,1-2.441,5.811A7.959,7.959,0,0,1,82.031-.2a7.911,7.911,0,0,1-5.811-2.393A7.911,7.911,0,0,1,73.828-8.4Z" transform="translate(-24.414 129.98)" fill="#707070"/>
</svg>
