<svg xmlns="http://www.w3.org/2000/svg" width="82.617" height="129.785" viewBox="0 0 82.617 129.785">
  <path id="Path_2" data-name="Path 2" d="M19.824-16.016V-114.16a15.209,15.209,0,0,1,4.688-11.133,15.209,15.209,0,0,1,11.133-4.687H86.816A14.94,14.94,0,0,1,97.8-125.293a15.288,15.288,0,0,1,4.639,11.133v98.145A15.24,15.24,0,0,1,97.8-4.834,15.24,15.24,0,0,1,86.621-.2H35.645a15.193,15.193,0,0,1-11.23-4.639A15.321,15.321,0,0,1,19.824-16.016ZM86.23-16.6v-96.777h-50V-16.6Z" transform="translate(-19.824 129.98)" fill="#707070"/>
</svg>
